HIERARCHY
ROOT Hips
{
	OFFSET 0.000000 71.427986 0.000000
	CHANNELS 6 Xposition Yposition Zposition Xrotation Yrotation Zrotation
	JOINT Pelvis
	{
		OFFSET 0.000000 0.000000 0.000000
		CHANNELS 3 Xrotation Yrotation Zrotation
		JOINT LeftUpLeg
		{
			OFFSET 6.797100 -2.508499 -1.318700
			CHANNELS 3 Xrotation Yrotation Zrotation
			JOINT LeftLeg
			{
				OFFSET 0.069008 -29.241863 0.690200
				CHANNELS 3 Xrotation Yrotation Zrotation
				JOINT LeftFoot
				{
					OFFSET -0.069008 -29.568123 -0.266800
					CHANNELS 3 Xrotation Yrotation Zrotation
					JOINT LeftToeBase
					{
						OFFSET 3.145500 -8.631000 16.059900
						CHANNELS 3 Xrotation Yrotation Zrotation
						End Site
						{
							OFFSET 0.000000 18.501587 0.000000
						}
					}
				}
			}
			JOINT Left_ShortSleeve
			{
				OFFSET 0.265923 -10.480953 1.153800
				CHANNELS 3 Xrotation Yrotation Zrotation
				End Site
				{
					OFFSET 1.725763 19.823879 0.000000
				}
			}
		}
		JOINT RightUpLeg
		{
			OFFSET -6.797100 -2.508499 -1.318700
			CHANNELS 3 Xrotation Yrotation Zrotation
			JOINT RightLeg
			{
				OFFSET -0.082453 -29.241932 0.688000
				CHANNELS 3 Xrotation Yrotation Zrotation
				JOINT RightFoot
				{
					OFFSET 0.082453 -29.568058 -0.264600
					CHANNELS 3 Xrotation Yrotation Zrotation
					JOINT RightToeBase
					{
						OFFSET -3.115300 -8.682800 16.113400
						CHANNELS 3 Xrotation Yrotation Zrotation
						End Site
						{
							OFFSET 0.000000 18.567114 0.000000
						}
					}
				}
			}
			JOINT Right_ShortSleeve
			{
				OFFSET -0.265923 -10.480953 1.153800
				CHANNELS 3 Xrotation Yrotation Zrotation
				End Site
				{
					OFFSET -1.725766 19.823910 0.000000
				}
			}
		}
	}
	JOINT Spine
	{
		OFFSET 0.000000 13.368103 0.470500
		CHANNELS 3 Xrotation Yrotation Zrotation
		JOINT Spine1
		{
			OFFSET 0.147000 13.837402 0.538800
			CHANNELS 3 Xrotation Yrotation Zrotation
			JOINT Spine2
			{
				OFFSET 0.168000 16.242897 -1.435500
				CHANNELS 3 Xrotation Yrotation Zrotation
				JOINT Neck
				{
					OFFSET 0.217200 18.631500 -1.679100
					CHANNELS 3 Xrotation Yrotation Zrotation
					JOINT Head
					{
						OFFSET 0.000000 6.599396 1.385900
						CHANNELS 3 Xrotation Yrotation Zrotation
						JOINT Hat
						{
							OFFSET -0.532200 27.220596 -10.096100
							CHANNELS 3 Xrotation Yrotation Zrotation
							End Site
							{
								OFFSET 0.000000 22.029861 0.000000
							}
						}
						JOINT HairD
						{
							OFFSET -10.777400 17.437393 -1.325900
							CHANNELS 3 Xrotation Yrotation Zrotation
							JOINT HairD1
							{
								OFFSET -3.290299 -11.051193 1.062200
								CHANNELS 3 Xrotation Yrotation Zrotation
								End Site
								{
									OFFSET 0.000000 11.579437 0.000000
								}
							}
						}
						JOINT HairB
						{
							OFFSET -10.777400 17.437393 1.467900
							CHANNELS 3 Xrotation Yrotation Zrotation
							JOINT HairB1
							{
								OFFSET -1.561200 -12.956299 3.590200
								CHANNELS 3 Xrotation Yrotation Zrotation
								End Site
								{
									OFFSET 0.000000 13.534866 0.000000
								}
							}
						}
						JOINT HairA
						{
							OFFSET 9.713100 17.437393 1.467900
							CHANNELS 3 Xrotation Yrotation Zrotation
							JOINT HairA1
							{
								OFFSET 1.561200 -12.956299 3.590200
								CHANNELS 3 Xrotation Yrotation Zrotation
								End Site
								{
									OFFSET 0.000000 13.534866 0.000000
								}
							}
						}
						JOINT HairC
						{
							OFFSET 9.713100 17.437393 -1.325900
							CHANNELS 3 Xrotation Yrotation Zrotation
							JOINT HairC1
							{
								OFFSET 3.290300 -11.051193 1.062200
								CHANNELS 3 Xrotation Yrotation Zrotation
								End Site
								{
									OFFSET 0.000000 11.579437 0.000000
								}
							}
						}
					}
				}
				JOINT LeftShoulder
				{
					OFFSET 5.101800 15.108002 -2.763700
					CHANNELS 3 Xrotation Yrotation Zrotation
					JOINT LeftArm
					{
						OFFSET 9.825497 2.506317 -1.597400
						CHANNELS 3 Xrotation Yrotation Zrotation
						JOINT LeftForeArm
						{
							OFFSET 21.966244 0.000000 0.000000
							CHANNELS 3 Xrotation Yrotation Zrotation
							JOINT LeftHand
							{
								OFFSET 33.879036 0.000000 0.000000
								CHANNELS 3 Xrotation Yrotation Zrotation
								JOINT LeftHandThumb1
								{
									OFFSET 6.715286 -2.359680 3.363841
									CHANNELS 3 Xrotation Yrotation Zrotation
									JOINT LeftHandThumb2
									{
										OFFSET 2.507072 -1.447464 1.447461
										CHANNELS 3 Xrotation Yrotation Zrotation
										JOINT LeftHandThumb3
										{
											OFFSET 2.898338 -1.673355 1.673357
											CHANNELS 3 Xrotation Yrotation Zrotation
											End Site
											{
												OFFSET -0.295959 3.727692 -0.131651
											}
										}
									}
								}
								JOINT LeftHandIndex1
								{
									OFFSET 14.190811 -0.254547 3.840278
									CHANNELS 3 Xrotation Yrotation Zrotation
									JOINT LeftHandIndex2
									{
										OFFSET 3.551727 0.000000 -0.000000
										CHANNELS 3 Xrotation Yrotation Zrotation
										JOINT LeftHandIndex3
										{
											OFFSET 2.894196 0.000000 0.000000
											CHANNELS 3 Xrotation Yrotation Zrotation
											End Site
											{
												OFFSET -1.000603 2.690872 0.366626
											}
										}
									}
								}
								JOINT LeftHandMiddle1
								{
									OFFSET 13.776489 0.000000 0.000000
									CHANNELS 3 Xrotation Yrotation Zrotation
									JOINT LeftHandMiddle2
									{
										OFFSET 3.438232 0.000000 0.000000
										CHANNELS 3 Xrotation Yrotation Zrotation
										JOINT LeftHandMiddle3
										{
											OFFSET 3.691551 0.000000 0.000000
											CHANNELS 3 Xrotation Yrotation Zrotation
											End Site
											{
												OFFSET -1.082298 3.499527 0.457670
											}
										}
									}
								}
								JOINT LeftHandRing1
								{
									OFFSET 13.966164 -0.268127 -3.067488
									CHANNELS 3 Xrotation Yrotation Zrotation
									JOINT LeftHandRing2
									{
										OFFSET 3.162567 0.000000 0.000000
										CHANNELS 3 Xrotation Yrotation Zrotation
										JOINT LeftHandRing3
										{
											OFFSET 3.324348 0.000000 0.000000
											CHANNELS 3 Xrotation Yrotation Zrotation
											End Site
											{
												OFFSET -0.861900 3.184998 0.405154
											}
										}
									}
								}
								JOINT LeftHandPinky1
								{
									OFFSET 13.131393 -0.168503 -5.746925
									CHANNELS 3 Xrotation Yrotation Zrotation
									JOINT LeftHandPinky2
									{
										OFFSET 2.849182 0.000000 0.000000
										CHANNELS 3 Xrotation Yrotation Zrotation
										JOINT LeftHandPinky3
										{
											OFFSET 2.805038 0.000000 0.000000
											CHANNELS 3 Xrotation Yrotation Zrotation
											End Site
											{
												OFFSET -0.882500 2.642609 0.325652
											}
										}
									}
								}
							}
							JOINT Left_Sleeve
							{
								OFFSET 6.592125 -0.646545 0.805568
								CHANNELS 3 Xrotation Yrotation Zrotation
								End Site
								{
									OFFSET -0.000179 20.275787 -0.000000
								}
							}
						}
					}
				}
				JOINT RightShoulder
				{
					OFFSET -5.731700 15.108002 -2.763700
					CHANNELS 3 Xrotation Yrotation Zrotation
					JOINT RightArm
					{
						OFFSET -9.825497 2.506317 -1.597400
						CHANNELS 3 Xrotation Yrotation Zrotation
						JOINT RightForeArm
						{
							OFFSET -21.966242 0.000000 0.000000
							CHANNELS 3 Xrotation Yrotation Zrotation
							JOINT RightHand
							{
								OFFSET -33.879032 0.000000 0.000000
								CHANNELS 3 Xrotation Yrotation Zrotation
								JOINT RightHandThumb1
								{
									OFFSET -6.715286 -2.359680 3.363841
									CHANNELS 3 Xrotation Yrotation Zrotation
									JOINT RightHandThumb2
									{
										OFFSET -2.507072 -1.447464 1.447461
										CHANNELS 3 Xrotation Yrotation Zrotation
										JOINT RightHandThumb3
										{
											OFFSET -2.898338 -1.673355 1.673357
											CHANNELS 3 Xrotation Yrotation Zrotation
											End Site
											{
												OFFSET 0.295959 3.727692 -0.131651
											}
										}
									}
								}
								JOINT RightHandIndex1
								{
									OFFSET -14.190811 -0.254547 3.840278
									CHANNELS 3 Xrotation Yrotation Zrotation
									JOINT RightHandIndex2
									{
										OFFSET -3.551727 0.000000 -0.000000
										CHANNELS 3 Xrotation Yrotation Zrotation
										JOINT RightHandIndex3
										{
											OFFSET -2.894196 0.000000 0.000000
											CHANNELS 3 Xrotation Yrotation Zrotation
											End Site
											{
												OFFSET 1.000603 2.690872 0.366626
											}
										}
									}
								}
								JOINT RightHandMiddle1
								{
									OFFSET -13.776489 0.000000 0.000000
									CHANNELS 3 Xrotation Yrotation Zrotation
									JOINT RightHandMiddle2
									{
										OFFSET -3.438232 0.000000 0.000000
										CHANNELS 3 Xrotation Yrotation Zrotation
										JOINT RightHandMiddle3
										{
											OFFSET -3.691551 0.000000 0.000000
											CHANNELS 3 Xrotation Yrotation Zrotation
											End Site
											{
												OFFSET 1.082298 3.499527 0.457670
											}
										}
									}
								}
								JOINT RightHandRing1
								{
									OFFSET -13.966164 -0.268127 -3.067488
									CHANNELS 3 Xrotation Yrotation Zrotation
									JOINT RightHandRing2
									{
										OFFSET -3.162567 0.000000 0.000000
										CHANNELS 3 Xrotation Yrotation Zrotation
										JOINT RightHandRing3
										{
											OFFSET -3.324348 0.000000 0.000000
											CHANNELS 3 Xrotation Yrotation Zrotation
											End Site
											{
												OFFSET 0.861900 3.184998 0.405154
											}
										}
									}
								}
								JOINT RightHandPinky1
								{
									OFFSET -13.131393 -0.168503 -5.746925
									CHANNELS 3 Xrotation Yrotation Zrotation
									JOINT RightHandPinky2
									{
										OFFSET -2.849182 0.000000 0.000000
										CHANNELS 3 Xrotation Yrotation Zrotation
										JOINT RightHandPinky3
										{
											OFFSET -2.805038 0.000000 0.000000
											CHANNELS 3 Xrotation Yrotation Zrotation
											End Site
											{
												OFFSET 0.882500 2.642609 0.325652
											}
										}
									}
								}
							}
							JOINT Right_Sleeve
							{
								OFFSET -6.592125 -0.646545 0.805568
								CHANNELS 3 Xrotation Yrotation Zrotation
								End Site
								{
									OFFSET 0.000179 20.275787 -0.000000
								}
							}
						}
					}
				}
				JOINT Bind_Right_JacketString
				{
					OFFSET -3.534800 11.969597 7.200700
					CHANNELS 3 Xrotation Yrotation Zrotation
					JOINT Bind_Right_JacketString1
					{
						OFFSET -0.319900 -6.102600 2.794100
						CHANNELS 3 Xrotation Yrotation Zrotation
						End Site
						{
							OFFSET 0.000000 6.719452 0.000000
						}
					}
				}
				JOINT Bind_Left_JacketString
				{
					OFFSET 2.904800 11.969597 7.200700
					CHANNELS 3 Xrotation Yrotation Zrotation
					JOINT Bind_Left_JacketString1
					{
						OFFSET 0.364800 -5.904503 3.186800
						CHANNELS 3 Xrotation Yrotation Zrotation
						End Site
						{
							OFFSET 0.000000 6.719513 0.000000
						}
					}
				}
				JOINT HairE
				{
					OFFSET 5.915200 17.612701 -11.592200
					CHANNELS 3 Xrotation Yrotation Zrotation
					JOINT HairE1
					{
						OFFSET 0.289200 -7.171898 -1.284500
						CHANNELS 3 Xrotation Yrotation Zrotation
						End Site
						{
							OFFSET 0.000000 7.291756 0.000000
						}
					}
				}
				JOINT HairF
				{
					OFFSET -0.864800 17.612701 -11.592200
					CHANNELS 3 Xrotation Yrotation Zrotation
					JOINT HairF1
					{
						OFFSET 0.000000 -14.087097 -2.127501
						CHANNELS 3 Xrotation Yrotation Zrotation
						End Site
						{
							OFFSET 0.000000 14.246841 0.000000
						}
					}
				}
				JOINT HairG
				{
					OFFSET -8.087700 17.612701 -11.592200
					CHANNELS 3 Xrotation Yrotation Zrotation
					JOINT HairG1
					{
						OFFSET -0.293600 -6.081398 -0.910100
						CHANNELS 3 Xrotation Yrotation Zrotation
						End Site
						{
							OFFSET 0.000000 6.156120 0.000000
						}
					}
				}
			}
		}
	}
	JOINT Pouch
	{
		OFFSET 0.000000 4.394501 10.847300
		CHANNELS 3 Xrotation Yrotation Zrotation
		End Site
		{
			OFFSET 0.000000 21.880577 0.000000
		}
	}
	JOINT Bag
	{
		OFFSET -13.229000 4.813004 -0.593300
		CHANNELS 3 Xrotation Yrotation Zrotation
		End Site
		{
			OFFSET 0.000000 21.880577 0.000000
		}
	}
	JOINT OccupyGuyFacialAnim_Joint
	{
		OFFSET 1.000000 -70.206398 -1.655000
		CHANNELS 3 Xrotation Yrotation Zrotation
		End Site
		{
			OFFSET 0.000000 21.880577 0.000000
		}
	}
}
MOTION
Frames: 4
Frame Time: 0.033333
0.103150 63.653839 1.308791 0.101903 2.144193 0.328939 0.000000 0.000000 -0.000000 -45.313039 -2.094394 4.243678 82.363523 10.661474 2.747255 -4.374834 2.192846 -4.310198 -0.000000 0.000000 -0.000001 -0.000002 0.000000 -0.000000 -34.622864 -2.912534 -7.101468 65.145853 5.989413 -0.987242 -23.319584 -0.256632 0.945072 0.000000 0.000000 0.000000 -0.000000 -0.000000 -0.000000 15.694969 2.206540 0.597168 2.587596 0.521687 0.458032 2.590844 0.496348 0.450427 0.862655 -0.755224 0.884768 -12.287013 -4.314991 -4.853315 0.000000 0.000000 0.000000 0.000000 0.000000 0.000000 0.000000 0.000000 0.000000 0.000000 0.000000 0.000000 -0.000001 0.000000 0.000000 0.000000 0.000000 0.000000 -0.000001 0.000000 0.000000 0.000000 0.000000 0.000000 0.000000 0.000000 0.000000 0.538673 -4.328697 -16.179982 29.263877 12.932564 -72.985742 0.000024 -55.431602 0.000029 4.979347 3.703995 -0.156586 -2.832635 -1.477340 13.645893 19.240301 19.690199 -6.942288 -0.000001 -0.000000 -0.000001 -0.860245 2.184295 -28.931551 0.745537 2.861849 -29.197522 0.000001 -0.000000 0.000003 1.505381 6.216139 -38.017803 0.846958 3.035999 -31.168691 0.000001 0.000001 -0.000001 4.144539 9.374809 -39.505910 1.451750 3.861389 -41.196815 -0.000002 -0.000001 -0.000004 1.991622 7.120109 -36.160418 0.708862 2.795308 -28.454385 -0.000001 -0.000001 0.000003 -0.000000 -0.000000 0.000000 0.411559 5.768844 18.389670 5.191518 -0.885449 54.986421 0.000002 40.557605 0.000005 13.088415 6.113377 -4.658653 -8.879557 4.825556 -8.712536 17.703283 -27.978895 -1.443601 -0.000002 0.000000 0.000001 -0.329057 -2.295703 22.502236 1.145058 -3.060389 41.019285 -0.000004 0.000000 0.000002 1.411815 -5.682550 35.397933 0.992229 -2.875535 38.068394 0.000001 -0.000001 -0.000003 3.805725 -8.246624 41.741492 0.788870 -2.595330 33.809214 0.000002 -0.000003 0.000001 1.189441 -5.348051 44.678812 1.008058 -2.895611 38.382709 -0.000002 0.000000 0.000000 0.000003 0.000000 -0.000000 0.000001 -0.000000 -0.000000 0.000001 0.000000 0.000000 0.000001 -0.000000 0.000000 0.000001 -0.000000 0.000000 0.000001 -0.000000 -0.000000 0.000001 0.000000 0.000000 0.000001 -0.000000 0.000000 0.000001 -0.000000 0.000000 0.000001 -0.000000 -0.000000 0.000001 0.000000 0.000000 0.000000 0.000000 -0.000000 0.000000 0.000000 -0.000000 0.000000 0.000000 -0.000000 
-0.367663 63.169136 -4.746905 -1.157685 2.273768 -0.602021 -0.000000 -0.000000 0.000000 -36.609172 -1.732829 8.030067 88.620004 9.054744 2.410898 -3.631488 0.464616 -5.545957 -0.000002 0.000001 -0.000000 -0.000004 0.000000 0.000000 -38.538011 -2.588763 -5.859393 62.572101 5.925578 -0.532498 -17.436805 -0.349099 1.725557 0.000000 0.000000 -0.000000 -0.000002 -0.000000 -0.000000 15.166329 -0.074492 1.292672 2.541967 -0.117227 0.646925 2.539494 -0.143323 0.657743 1.087320 -0.342925 0.646965 -10.784146 -1.584591 -4.541281 0.000001 -0.000000 -0.000000 0.000001 -0.000000 -0.000000 0.000001 -0.000000 -0.000000 0.000001 -0.000000 -0.000000 0.000001 0.000000 -0.000000 0.000001 -0.000000 -0.000000 0.000001 0.000000 -0.000000 0.000001 -0.000000 -0.000000 0.000001 -0.000000 -0.000000 0.537842 -4.496810 -15.493772 24.680083 11.551374 -68.771658 0.000025 -65.951487 0.000024 5.303486 1.190197 2.438393 -2.832637 -1.477337 13.645897 18.817991 19.017279 -6.560223 0.000001 0.000001 0.000001 -0.883097 1.802641 -30.325442 0.843925 3.030967 -31.111314 0.000001 0.000003 0.000004 1.459879 6.151338 -39.586021 0.914180 3.144276 -32.415562 -0.000000 0.000001 -0.000001 4.210590 9.247227 -41.351830 1.565781 3.987607 -42.862818 -0.000001 0.000002 -0.000002 1.958808 6.863777 -37.696791 0.732656 2.838728 -28.938651 0.000001 -0.000001 0.000003 -0.000000 0.000001 -0.000000 0.434665 5.292679 18.867653 15.488796 -7.525639 58.870814 0.000005 42.468535 0.000002 11.852915 4.649876 -0.904265 -8.879558 4.825556 -8.712535 11.805083 -19.504730 -6.904847 -0.000001 -0.000001 -0.000000 -0.207122 -1.910881 21.502689 1.117388 -3.028333 40.498357 -0.000000 0.000000 -0.000001 1.338500 -5.609482 34.180811 1.021899 -2.912962 38.655900 -0.000001 0.000001 -0.000001 4.872715 -9.574724 40.762354 0.896681 -2.749326 36.121220 -0.000000 -0.000000 0.000002 1.591710 -7.115260 46.693304 1.221652 -3.146167 42.434039 -0.000000 0.000001 0.000001 0.000000 -0.000000 0.000000 0.000001 0.000000 0.000000 0.000002 0.000000 -0.000000 0.000001 0.000000 0.000000 0.000001 0.000000 0.000000 0.000001 0.000000 0.000000 0.000002 0.000000 -0.000000 0.000001 0.000000 0.000000 0.000001 0.000000 0.000000 0.000001 0.000000 0.000000 0.000002 0.000000 -0.000000 -0.000000 -0.000000 0.000000 -0.000000 -0.000000 0.000000 -0.000000 -0.000000 0.000000 
-0.596723 63.562233 -10.798690 -3.153268 6.471227 -0.940755 0.000000 -0.000001 -0.000000 -26.442145 -3.467460 8.880200 89.131380 6.370399 3.287312 -1.224096 0.582878 -8.237725 -0.000002 0.000001 -0.000000 -0.000002 0.000001 0.000000 -38.996214 -4.228167 -7.614554 55.885646 5.370476 0.781880 -9.220772 -0.312754 2.095744 0.000000 0.000000 -0.000000 -0.000000 -0.000000 0.000000 15.233987 -4.692153 2.196084 2.336165 -1.383324 0.602976 2.331654 -1.394965 0.647855 1.555992 0.072344 0.586092 -8.839584 0.803296 -3.866156 0.000000 0.000000 -0.000000 0.000000 0.000000 -0.000000 0.000000 0.000000 -0.000000 0.000000 0.000000 0.000000 -0.000001 -0.000000 -0.000000 0.000000 0.000000 0.000000 -0.000001 -0.000000 -0.000000 0.000000 0.000000 -0.000000 0.000000 0.000000 -0.000000 0.479963 -5.869437 -14.607487 23.658387 12.866310 -62.931539 0.000194 -82.824267 0.000170 9.091103 -0.340103 6.713911 -2.832636 -1.477340 13.645897 19.175029 19.586220 -6.881905 -0.000001 -0.000000 0.000002 -0.999726 2.107808 -38.350880 1.075867 3.385098 -35.254237 0.000003 0.000000 -0.000002 1.874194 6.590711 -44.663939 0.957395 3.211234 -33.195194 0.000002 -0.000001 0.000001 3.793188 8.512884 -44.691219 1.824996 4.249179 -46.470975 -0.000001 -0.000001 0.000001 0.497424 5.006360 -39.960254 0.830382 3.008480 -30.854413 0.000001 0.000003 0.000003 0.000001 0.000003 -0.000002 0.623413 3.102349 17.665962 27.000494 -12.801040 64.292448 0.000001 51.003256 0.000005 10.415596 3.775244 1.625443 -8.879558 4.825556 -8.712536 8.431246 -11.770999 -10.380084 0.000001 -0.000001 0.000000 -0.065444 -1.414845 18.495387 1.080107 -2.984183 39.787522 -0.000001 0.000000 -0.000001 1.277579 -5.636691 30.417605 0.995241 -2.879376 38.128281 0.000002 -0.000000 0.000003 5.796680 -11.776822 35.471597 1.030765 -2.924017 38.830083 0.000002 -0.000002 -0.000002 1.603619 -9.806700 42.932650 1.332917 -3.263519 44.424087 -0.000000 0.000000 0.000002 0.000000 0.000000 -0.000002 -0.000001 -0.000000 -0.000000 0.000000 0.000000 -0.000000 -0.000001 -0.000000 -0.000000 -0.000001 -0.000000 -0.000000 -0.000001 -0.000000 -0.000000 0.000000 0.000000 -0.000000 -0.000001 -0.000000 -0.000000 -0.000001 -0.000000 -0.000000 -0.000001 -0.000000 -0.000000 0.000000 0.000000 -0.000000 0.000000 -0.000001 -0.000000 0.000000 -0.000001 -0.000000 0.000000 -0.000001 -0.000000 
-0.571463 64.286057 -17.615297 -4.141201 10.479813 -1.139288 -0.000000 0.000000 0.000000 -19.419901 -5.201287 8.893351 86.544719 2.593556 4.612291 -0.353268 0.708172 -9.852577 -0.000002 -0.000001 0.000000 -0.000001 0.000000 -0.000001 -38.435585 -5.786313 -9.856694 43.901297 4.444337 2.141012 3.405919 -0.131534 3.021856 -0.000000 -0.000000 -0.000000 0.000004 0.000000 -0.000000 15.073985 -8.989331 2.507821 2.254589 -2.540371 0.392388 2.257711 -2.534105 0.457070 1.899851 0.378076 0.638381 -6.945280 2.465247 -2.962872 0.000001 0.000000 0.000000 0.000001 0.000000 0.000000 0.000001 0.000000 0.000000 0.000001 0.000000 0.000000 0.000000 -0.000000 0.000000 0.000001 0.000000 0.000000 0.000000 -0.000000 0.000000 0.000001 0.000000 0.000000 0.000001 0.000000 0.000000 0.432840 -7.680193 -13.718771 21.079639 16.936714 -55.061106 0.000037 -100.953529 0.000018 13.565995 0.907058 10.256365 -2.832637 -1.477336 13.645895 19.269591 19.756874 -6.975976 0.000002 -0.000000 0.000002 -1.057687 2.425581 -42.972545 1.155615 3.495001 -36.583316 -0.000001 0.000001 -0.000002 1.726314 6.447939 -46.454780 0.924445 3.160362 -32.602187 0.000001 -0.000001 -0.000001 3.242283 7.962979 -44.667825 1.913970 4.331726 -47.660227 -0.000004 0.000001 -0.000001 -0.539665 3.748290 -39.737289 0.847974 3.037664 -31.187675 -0.000000 0.000003 0.000003 -0.000001 0.000000 0.000000 0.686545 1.357858 15.273645 36.560626 -16.550733 70.397995 -0.000015 60.948483 0.000016 8.622415 1.617379 3.746511 -8.879557 4.825553 -8.712534 8.230369 -11.064609 -10.635564 -0.000000 -0.000002 -0.000001 -0.001400 -1.287805 18.465293 0.990415 -2.873221 38.032262 -0.000001 -0.000000 0.000000 1.194800 -5.510071 30.030067 0.930619 -2.795186 36.822885 0.000001 -0.000000 0.000001 5.534459 -11.707299 34.260488 1.016988 -2.906839 38.559140 -0.000000 -0.000001 -0.000000 1.422110 -10.262089 41.252932 1.324441 -3.254855 44.274939 -0.000000 0.000001 0.000004 0.000000 -0.000000 0.000001 -0.000001 0.000000 0.000000 0.000001 -0.000000 0.000000 -0.000001 0.000000 -0.000000 -0.000001 0.000000 -0.000000 -0.000001 0.000000 0.000000 0.000001 -0.000000 0.000000 -0.000001 0.000000 -0.000000 -0.000001 0.000000 -0.000000 -0.000001 0.000000 0.000000 0.000001 -0.000000 0.000000 -0.000000 0.000000 0.000000 -0.000000 0.000000 0.000000 -0.000000 0.000000 0.000000 
